<mxfile host="app.diagrams.net" modified="2023-03-24T18:49:21.200Z" agent="Mozilla/5.0 (Windows NT 10.0; Win64; x64) AppleWebKit/537.36 (KHTML, like Gecko) Chrome/111.0.0.0 Safari/537.36 Edg/111.0.1661.44" etag="chrOeKDN_eVy4JH0GiYv" version="21.1.0" type="device">
  <diagram name="PÃ¡gina-1" id="1xG6y8-j9Gai8vu6elah">
    <mxGraphModel dx="1247" dy="685" grid="1" gridSize="10" guides="1" tooltips="1" connect="1" arrows="1" fold="1" page="0" pageScale="1" pageWidth="827" pageHeight="1169" math="0" shadow="0">
      <root>
        <mxCell id="0" />
        <mxCell id="1" parent="0" />
        <mxCell id="vWzBM63LMQKR8ZRTNBPx-24" value="Client" style="rounded=0;whiteSpace=wrap;html=1;fillColor=#e1d5e7;strokeColor=#000000;horizontal=0;" parent="1" vertex="1">
          <mxGeometry x="130" y="240" width="40" height="130" as="geometry" />
        </mxCell>
        <mxCell id="vWzBM63LMQKR8ZRTNBPx-27" value="API endpoint" style="rounded=0;whiteSpace=wrap;html=1;fillColor=#e1d5e7;strokeColor=#000000;horizontal=0;" parent="1" vertex="1">
          <mxGeometry x="130" y="370" width="40" height="130" as="geometry" />
        </mxCell>
        <mxCell id="vWzBM63LMQKR8ZRTNBPx-28" value="Domain" style="rounded=0;whiteSpace=wrap;html=1;fillColor=#e1d5e7;strokeColor=#000000;horizontal=0;" parent="1" vertex="1">
          <mxGeometry x="130" y="500" width="40" height="130" as="geometry" />
        </mxCell>
        <mxCell id="vWzBM63LMQKR8ZRTNBPx-30" value="" style="rounded=0;whiteSpace=wrap;html=1;" parent="1" vertex="1">
          <mxGeometry x="170" y="240" width="1810" height="130" as="geometry" />
        </mxCell>
        <mxCell id="vWzBM63LMQKR8ZRTNBPx-31" value="" style="rounded=0;whiteSpace=wrap;html=1;" parent="1" vertex="1">
          <mxGeometry x="170" y="370" width="1810" height="130" as="geometry" />
        </mxCell>
        <mxCell id="vWzBM63LMQKR8ZRTNBPx-32" value="" style="rounded=0;whiteSpace=wrap;html=1;" parent="1" vertex="1">
          <mxGeometry x="170" y="500" width="1810" height="130" as="geometry" />
        </mxCell>
        <mxCell id="vWzBM63LMQKR8ZRTNBPx-33" value="Database" style="rounded=0;whiteSpace=wrap;html=1;fillColor=#e1d5e7;strokeColor=#000000;horizontal=0;" parent="1" vertex="1">
          <mxGeometry x="130" y="630" width="40" height="130" as="geometry" />
        </mxCell>
        <mxCell id="vWzBM63LMQKR8ZRTNBPx-34" value="" style="rounded=0;whiteSpace=wrap;html=1;" parent="1" vertex="1">
          <mxGeometry x="170" y="630" width="1810" height="130" as="geometry" />
        </mxCell>
        <mxCell id="vWzBM63LMQKR8ZRTNBPx-38" style="edgeStyle=orthogonalEdgeStyle;rounded=0;orthogonalLoop=1;jettySize=auto;html=1;entryX=0;entryY=0.5;entryDx=0;entryDy=0;" parent="1" source="vWzBM63LMQKR8ZRTNBPx-35" target="vWzBM63LMQKR8ZRTNBPx-37" edge="1">
          <mxGeometry relative="1" as="geometry" />
        </mxCell>
        <mxCell id="vWzBM63LMQKR8ZRTNBPx-35" value="" style="ellipse;whiteSpace=wrap;html=1;aspect=fixed;" parent="1" vertex="1">
          <mxGeometry x="190" y="287.5" width="35" height="35" as="geometry" />
        </mxCell>
        <mxCell id="vWzBM63LMQKR8ZRTNBPx-45" style="edgeStyle=orthogonalEdgeStyle;rounded=0;orthogonalLoop=1;jettySize=auto;html=1;entryX=0.5;entryY=0;entryDx=0;entryDy=0;" parent="1" source="vWzBM63LMQKR8ZRTNBPx-37" target="vWzBM63LMQKR8ZRTNBPx-41" edge="1">
          <mxGeometry relative="1" as="geometry" />
        </mxCell>
        <mxCell id="vWzBM63LMQKR8ZRTNBPx-37" value="Transfer request" style="rounded=1;whiteSpace=wrap;html=1;" parent="1" vertex="1">
          <mxGeometry x="270" y="275" width="110" height="60" as="geometry" />
        </mxCell>
        <mxCell id="vWzBM63LMQKR8ZRTNBPx-39" value="400: Bad request" style="rounded=1;whiteSpace=wrap;html=1;" parent="1" vertex="1">
          <mxGeometry x="1320.22" y="275" width="110" height="60" as="geometry" />
        </mxCell>
        <mxCell id="vWzBM63LMQKR8ZRTNBPx-119" style="edgeStyle=orthogonalEdgeStyle;rounded=0;orthogonalLoop=1;jettySize=auto;html=1;entryX=0;entryY=0.5;entryDx=0;entryDy=0;exitX=1;exitY=0.5;exitDx=0;exitDy=0;" parent="1" source="vWzBM63LMQKR8ZRTNBPx-40" target="vWzBM63LMQKR8ZRTNBPx-62" edge="1">
          <mxGeometry relative="1" as="geometry">
            <mxPoint x="1275.5300000000002" y="435" as="sourcePoint" />
          </mxGeometry>
        </mxCell>
        <mxCell id="vWzBM63LMQKR8ZRTNBPx-120" style="edgeStyle=orthogonalEdgeStyle;rounded=0;orthogonalLoop=1;jettySize=auto;html=1;entryX=0.5;entryY=0;entryDx=0;entryDy=0;" parent="1" source="vWzBM63LMQKR8ZRTNBPx-40" target="vWzBM63LMQKR8ZRTNBPx-49" edge="1">
          <mxGeometry relative="1" as="geometry" />
        </mxCell>
        <mxCell id="wgONBGirR9NFMQGQUzVF-12" value="Origin Account" style="edgeLabel;html=1;align=center;verticalAlign=middle;resizable=0;points=[];" parent="vWzBM63LMQKR8ZRTNBPx-120" vertex="1" connectable="0">
          <mxGeometry x="-0.1083" relative="1" as="geometry">
            <mxPoint y="11" as="offset" />
          </mxGeometry>
        </mxCell>
        <mxCell id="vWzBM63LMQKR8ZRTNBPx-40" value="Balance API" style="rounded=1;whiteSpace=wrap;html=1;" parent="1" vertex="1">
          <mxGeometry x="1150" y="405" width="110" height="60" as="geometry" />
        </mxCell>
        <mxCell id="fRHEa2I3nJaM0fRCXHxu-4" style="edgeStyle=orthogonalEdgeStyle;rounded=0;orthogonalLoop=1;jettySize=auto;html=1;entryX=0;entryY=0.5;entryDx=0;entryDy=0;" edge="1" parent="1" source="vWzBM63LMQKR8ZRTNBPx-41" target="fRHEa2I3nJaM0fRCXHxu-3">
          <mxGeometry relative="1" as="geometry" />
        </mxCell>
        <mxCell id="vWzBM63LMQKR8ZRTNBPx-41" value="Transfer API" style="rounded=1;whiteSpace=wrap;html=1;" parent="1" vertex="1">
          <mxGeometry x="270" y="405" width="110" height="60" as="geometry" />
        </mxCell>
        <mxCell id="vWzBM63LMQKR8ZRTNBPx-49" value="Get Account Balance" style="rounded=1;whiteSpace=wrap;html=1;" parent="1" vertex="1">
          <mxGeometry x="1150" y="665" width="110" height="60" as="geometry" />
        </mxCell>
        <mxCell id="vWzBM63LMQKR8ZRTNBPx-93" style="edgeStyle=orthogonalEdgeStyle;rounded=0;orthogonalLoop=1;jettySize=auto;html=1;entryX=0;entryY=0.5;entryDx=0;entryDy=0;" parent="1" source="vWzBM63LMQKR8ZRTNBPx-62" target="wgONBGirR9NFMQGQUzVF-9" edge="1">
          <mxGeometry relative="1" as="geometry">
            <mxPoint x="1475.2199999999998" y="435" as="targetPoint" />
            <Array as="points">
              <mxPoint x="1455.53" y="565" />
              <mxPoint x="1455.53" y="435" />
            </Array>
          </mxGeometry>
        </mxCell>
        <mxCell id="vWzBM63LMQKR8ZRTNBPx-94" value="Yes" style="edgeLabel;html=1;align=center;verticalAlign=middle;resizable=0;points=[];" parent="vWzBM63LMQKR8ZRTNBPx-93" vertex="1" connectable="0">
          <mxGeometry x="-0.9062" y="2" relative="1" as="geometry">
            <mxPoint x="5" y="2" as="offset" />
          </mxGeometry>
        </mxCell>
        <mxCell id="fRHEa2I3nJaM0fRCXHxu-38" style="edgeStyle=orthogonalEdgeStyle;rounded=0;orthogonalLoop=1;jettySize=auto;html=1;exitX=0.5;exitY=0;exitDx=0;exitDy=0;entryX=0.5;entryY=1;entryDx=0;entryDy=0;" edge="1" parent="1" source="vWzBM63LMQKR8ZRTNBPx-62" target="vWzBM63LMQKR8ZRTNBPx-39">
          <mxGeometry relative="1" as="geometry" />
        </mxCell>
        <mxCell id="fRHEa2I3nJaM0fRCXHxu-39" value="No" style="edgeLabel;html=1;align=center;verticalAlign=middle;resizable=0;points=[];" vertex="1" connectable="0" parent="fRHEa2I3nJaM0fRCXHxu-38">
          <mxGeometry x="-0.5706" relative="1" as="geometry">
            <mxPoint y="-4" as="offset" />
          </mxGeometry>
        </mxCell>
        <mxCell id="vWzBM63LMQKR8ZRTNBPx-62" value="Has&lt;br&gt;balance?" style="rhombus;whiteSpace=wrap;html=1;" parent="1" vertex="1">
          <mxGeometry x="1335.22" y="525" width="80" height="80" as="geometry" />
        </mxCell>
        <mxCell id="wgONBGirR9NFMQGQUzVF-16" style="edgeStyle=orthogonalEdgeStyle;rounded=0;orthogonalLoop=1;jettySize=auto;html=1;exitX=0.5;exitY=1;exitDx=0;exitDy=0;entryX=0.5;entryY=0;entryDx=0;entryDy=0;" parent="1" source="wgONBGirR9NFMQGQUzVF-9" target="wgONBGirR9NFMQGQUzVF-13" edge="1">
          <mxGeometry relative="1" as="geometry" />
        </mxCell>
        <mxCell id="wgONBGirR9NFMQGQUzVF-17" style="edgeStyle=orthogonalEdgeStyle;rounded=0;orthogonalLoop=1;jettySize=auto;html=1;exitX=0.5;exitY=1;exitDx=0;exitDy=0;entryX=0.5;entryY=0;entryDx=0;entryDy=0;" parent="1" source="wgONBGirR9NFMQGQUzVF-9" target="wgONBGirR9NFMQGQUzVF-14" edge="1">
          <mxGeometry relative="1" as="geometry" />
        </mxCell>
        <mxCell id="wgONBGirR9NFMQGQUzVF-27" style="edgeStyle=orthogonalEdgeStyle;rounded=0;orthogonalLoop=1;jettySize=auto;html=1;entryX=0;entryY=0.5;entryDx=0;entryDy=0;" parent="1" source="wgONBGirR9NFMQGQUzVF-9" target="wgONBGirR9NFMQGQUzVF-18" edge="1">
          <mxGeometry relative="1" as="geometry" />
        </mxCell>
        <mxCell id="wgONBGirR9NFMQGQUzVF-9" value="Balance API" style="rounded=1;whiteSpace=wrap;html=1;" parent="1" vertex="1">
          <mxGeometry x="1531.06" y="405" width="110" height="60" as="geometry" />
        </mxCell>
        <mxCell id="wgONBGirR9NFMQGQUzVF-13" value="Insert Origin Account Transaction" style="rounded=1;whiteSpace=wrap;html=1;" parent="1" vertex="1">
          <mxGeometry x="1461.06" y="665" width="110" height="60" as="geometry" />
        </mxCell>
        <mxCell id="wgONBGirR9NFMQGQUzVF-14" value="Insert Destination Account Transaction" style="rounded=1;whiteSpace=wrap;html=1;" parent="1" vertex="1">
          <mxGeometry x="1611.06" y="665" width="110" height="60" as="geometry" />
        </mxCell>
        <mxCell id="wgONBGirR9NFMQGQUzVF-26" style="edgeStyle=orthogonalEdgeStyle;rounded=0;orthogonalLoop=1;jettySize=auto;html=1;exitX=1;exitY=0.5;exitDx=0;exitDy=0;entryX=0;entryY=0.5;entryDx=0;entryDy=0;" parent="1" source="wgONBGirR9NFMQGQUzVF-18" target="wgONBGirR9NFMQGQUzVF-23" edge="1">
          <mxGeometry relative="1" as="geometry" />
        </mxCell>
        <mxCell id="wgONBGirR9NFMQGQUzVF-18" value="200: Success" style="rounded=1;whiteSpace=wrap;html=1;" parent="1" vertex="1">
          <mxGeometry x="1761.06" y="275" width="110" height="60" as="geometry" />
        </mxCell>
        <mxCell id="wgONBGirR9NFMQGQUzVF-23" value="" style="ellipse;whiteSpace=wrap;html=1;aspect=fixed;" parent="1" vertex="1">
          <mxGeometry x="1921.06" y="287.5" width="35" height="35" as="geometry" />
        </mxCell>
        <mxCell id="fRHEa2I3nJaM0fRCXHxu-32" style="edgeStyle=orthogonalEdgeStyle;rounded=0;orthogonalLoop=1;jettySize=auto;html=1;entryX=0.5;entryY=0;entryDx=0;entryDy=0;" edge="1" parent="1" source="fRHEa2I3nJaM0fRCXHxu-3" target="fRHEa2I3nJaM0fRCXHxu-31">
          <mxGeometry relative="1" as="geometry" />
        </mxCell>
        <mxCell id="fRHEa2I3nJaM0fRCXHxu-36" value="Origin Account" style="edgeLabel;html=1;align=center;verticalAlign=middle;resizable=0;points=[];" vertex="1" connectable="0" parent="fRHEa2I3nJaM0fRCXHxu-32">
          <mxGeometry x="0.1497" relative="1" as="geometry">
            <mxPoint y="-15" as="offset" />
          </mxGeometry>
        </mxCell>
        <mxCell id="fRHEa2I3nJaM0fRCXHxu-33" style="edgeStyle=orthogonalEdgeStyle;rounded=0;orthogonalLoop=1;jettySize=auto;html=1;entryX=0;entryY=0.5;entryDx=0;entryDy=0;" edge="1" parent="1" source="fRHEa2I3nJaM0fRCXHxu-3" target="fRHEa2I3nJaM0fRCXHxu-19">
          <mxGeometry relative="1" as="geometry" />
        </mxCell>
        <mxCell id="fRHEa2I3nJaM0fRCXHxu-3" value="Account API" style="rounded=1;whiteSpace=wrap;html=1;" vertex="1" parent="1">
          <mxGeometry x="420" y="405" width="110" height="60" as="geometry" />
        </mxCell>
        <mxCell id="fRHEa2I3nJaM0fRCXHxu-11" style="edgeStyle=orthogonalEdgeStyle;rounded=0;orthogonalLoop=1;jettySize=auto;html=1;exitX=1;exitY=0.5;exitDx=0;exitDy=0;entryX=0;entryY=0.5;entryDx=0;entryDy=0;" edge="1" parent="1" source="fRHEa2I3nJaM0fRCXHxu-7" target="vWzBM63LMQKR8ZRTNBPx-40">
          <mxGeometry relative="1" as="geometry" />
        </mxCell>
        <mxCell id="fRHEa2I3nJaM0fRCXHxu-12" value="Yes" style="edgeLabel;html=1;align=center;verticalAlign=middle;resizable=0;points=[];" vertex="1" connectable="0" parent="fRHEa2I3nJaM0fRCXHxu-11">
          <mxGeometry x="-0.8366" y="2" relative="1" as="geometry">
            <mxPoint x="4" y="2" as="offset" />
          </mxGeometry>
        </mxCell>
        <mxCell id="fRHEa2I3nJaM0fRCXHxu-26" style="edgeStyle=orthogonalEdgeStyle;rounded=0;orthogonalLoop=1;jettySize=auto;html=1;exitX=0.5;exitY=0;exitDx=0;exitDy=0;entryX=0;entryY=0.5;entryDx=0;entryDy=0;" edge="1" parent="1" source="fRHEa2I3nJaM0fRCXHxu-7" target="vWzBM63LMQKR8ZRTNBPx-39">
          <mxGeometry relative="1" as="geometry">
            <mxPoint x="1019.5714285714289" y="310" as="targetPoint" />
          </mxGeometry>
        </mxCell>
        <mxCell id="fRHEa2I3nJaM0fRCXHxu-28" value="No" style="edgeLabel;html=1;align=center;verticalAlign=middle;resizable=0;points=[];" vertex="1" connectable="0" parent="fRHEa2I3nJaM0fRCXHxu-26">
          <mxGeometry x="-0.9003" relative="1" as="geometry">
            <mxPoint y="-10" as="offset" />
          </mxGeometry>
        </mxCell>
        <mxCell id="fRHEa2I3nJaM0fRCXHxu-7" value="Target&lt;br style=&quot;border-color: var(--border-color);&quot;&gt;Account&lt;br style=&quot;border-color: var(--border-color);&quot;&gt;exists?" style="rhombus;whiteSpace=wrap;html=1;" vertex="1" parent="1">
          <mxGeometry x="970" y="515" width="100" height="100" as="geometry" />
        </mxCell>
        <mxCell id="fRHEa2I3nJaM0fRCXHxu-20" style="edgeStyle=orthogonalEdgeStyle;rounded=0;orthogonalLoop=1;jettySize=auto;html=1;entryX=0;entryY=0.5;entryDx=0;entryDy=0;" edge="1" parent="1" source="fRHEa2I3nJaM0fRCXHxu-19" target="fRHEa2I3nJaM0fRCXHxu-29">
          <mxGeometry relative="1" as="geometry" />
        </mxCell>
        <mxCell id="fRHEa2I3nJaM0fRCXHxu-21" value="Yes" style="edgeLabel;html=1;align=center;verticalAlign=middle;resizable=0;points=[];" vertex="1" connectable="0" parent="fRHEa2I3nJaM0fRCXHxu-20">
          <mxGeometry x="-0.3352" relative="1" as="geometry">
            <mxPoint x="-15" y="31" as="offset" />
          </mxGeometry>
        </mxCell>
        <mxCell id="fRHEa2I3nJaM0fRCXHxu-25" style="edgeStyle=orthogonalEdgeStyle;rounded=0;orthogonalLoop=1;jettySize=auto;html=1;exitX=0.5;exitY=0;exitDx=0;exitDy=0;entryX=0;entryY=0.5;entryDx=0;entryDy=0;" edge="1" parent="1" source="fRHEa2I3nJaM0fRCXHxu-19" target="vWzBM63LMQKR8ZRTNBPx-39">
          <mxGeometry relative="1" as="geometry" />
        </mxCell>
        <mxCell id="fRHEa2I3nJaM0fRCXHxu-27" value="No" style="edgeLabel;html=1;align=center;verticalAlign=middle;resizable=0;points=[];" vertex="1" connectable="0" parent="fRHEa2I3nJaM0fRCXHxu-25">
          <mxGeometry x="-0.9262" relative="1" as="geometry">
            <mxPoint as="offset" />
          </mxGeometry>
        </mxCell>
        <mxCell id="fRHEa2I3nJaM0fRCXHxu-19" value="Origin&lt;br style=&quot;border-color: var(--border-color);&quot;&gt;Account&lt;br style=&quot;border-color: var(--border-color);&quot;&gt;exists?" style="rhombus;whiteSpace=wrap;html=1;" vertex="1" parent="1">
          <mxGeometry x="625" y="515" width="100" height="100" as="geometry" />
        </mxCell>
        <mxCell id="fRHEa2I3nJaM0fRCXHxu-30" style="edgeStyle=orthogonalEdgeStyle;rounded=0;orthogonalLoop=1;jettySize=auto;html=1;entryX=0;entryY=0.5;entryDx=0;entryDy=0;" edge="1" parent="1" source="fRHEa2I3nJaM0fRCXHxu-29" target="fRHEa2I3nJaM0fRCXHxu-7">
          <mxGeometry relative="1" as="geometry" />
        </mxCell>
        <mxCell id="fRHEa2I3nJaM0fRCXHxu-35" style="edgeStyle=orthogonalEdgeStyle;rounded=0;orthogonalLoop=1;jettySize=auto;html=1;exitX=0.5;exitY=1;exitDx=0;exitDy=0;entryX=0.5;entryY=0;entryDx=0;entryDy=0;" edge="1" parent="1" source="fRHEa2I3nJaM0fRCXHxu-29" target="fRHEa2I3nJaM0fRCXHxu-34">
          <mxGeometry relative="1" as="geometry" />
        </mxCell>
        <mxCell id="fRHEa2I3nJaM0fRCXHxu-37" value="Target Account" style="edgeLabel;html=1;align=center;verticalAlign=middle;resizable=0;points=[];" vertex="1" connectable="0" parent="fRHEa2I3nJaM0fRCXHxu-35">
          <mxGeometry x="0.2124" y="-1" relative="1" as="geometry">
            <mxPoint x="1" y="-21" as="offset" />
          </mxGeometry>
        </mxCell>
        <mxCell id="fRHEa2I3nJaM0fRCXHxu-29" value="Account API" style="rounded=1;whiteSpace=wrap;html=1;" vertex="1" parent="1">
          <mxGeometry x="795" y="405" width="110" height="60" as="geometry" />
        </mxCell>
        <mxCell id="fRHEa2I3nJaM0fRCXHxu-31" value="Get Account" style="rounded=1;whiteSpace=wrap;html=1;" vertex="1" parent="1">
          <mxGeometry x="420" y="665" width="110" height="60" as="geometry" />
        </mxCell>
        <mxCell id="fRHEa2I3nJaM0fRCXHxu-34" value="Get Account" style="rounded=1;whiteSpace=wrap;html=1;" vertex="1" parent="1">
          <mxGeometry x="795" y="665" width="110" height="60" as="geometry" />
        </mxCell>
      </root>
    </mxGraphModel>
  </diagram>
</mxfile>
